<?xml version="1.0" encoding="UTF-8" ?>
<!DOCTYPE svg PUBLIC "-//W3C//DTD SVG 1.1//EN" "http://www.w3.org/Graphics/SVG/1.1/DTD/svg11.dtd">
<svg width="380pt" height="383pt" viewBox="0 0 380 383" version="1.1" xmlns="http://www.w3.org/2000/svg">
<g id="#f29681f9">
<path fill="#f29681" opacity="0.98" d=" M 113.47 19.15 C 161.63 -2.73 219.14 -2.19 267.21 19.71 C 268.30 20.09 269.10 20.77 269.62 21.76 C 248.94 13.56 227.47 5.92 205.05 4.93 C 193.82 2.92 182.33 3.60 171.06 4.86 C 158.16 5.76 145.55 8.98 133.22 12.78 C 126.62 14.86 120.20 17.49 113.47 19.15 Z" />
<path fill="#f29681" opacity="0.98" d=" M 270.04 22.17 C 270.15 21.91 270.39 21.40 270.50 21.14 C 284.45 28.00 297.73 36.27 309.70 46.22 C 311.35 47.73 313.63 48.83 314.44 51.04 L 314.39 51.50 C 310.95 49.40 307.96 46.69 304.78 44.24 C 294.17 35.84 282.73 28.23 270.16 23.10 C 270.13 22.87 270.07 22.40 270.04 22.17 Z" />
<path fill="#f29681" opacity="0.98" d=" M 314.88 51.82 C 316.48 51.99 317.65 53.16 318.80 54.18 C 340.73 74.96 357.72 100.97 367.58 129.54 C 378.48 160.67 380.91 194.70 374.66 227.07 C 366.91 268.02 345.05 306.15 313.58 333.47 C 290.92 353.34 263.39 367.57 234.11 374.69 C 200.64 382.84 164.95 381.62 132.15 371.08 C 96.74 359.77 64.60 337.83 41.82 308.41 C 45.73 311.77 48.63 316.10 52.40 319.61 C 57.42 324.30 61.83 329.63 67.23 333.91 C 74.90 340.02 82.55 346.25 91.12 351.09 C 100.40 356.38 109.68 361.84 119.77 365.46 C 134.08 370.80 148.80 375.37 163.99 377.31 C 176.53 379.40 189.30 378.31 201.95 378.52 C 224.15 377.33 245.74 370.83 266.17 362.34 C 276.52 357.30 286.66 351.72 296.17 345.22 C 305.06 338.51 314.11 331.87 321.67 323.62 C 329.21 316.77 335.25 308.54 341.44 300.50 C 346.29 294.09 350.15 287.02 354.02 280.00 C 356.73 274.96 359.60 269.97 361.67 264.62 C 368.09 247.68 373.59 230.18 375.38 212.08 C 376.89 203.46 376.30 194.71 376.43 186.01 C 376.63 177.06 375.06 168.20 373.82 159.37 C 369.55 138.91 363.42 118.52 352.68 100.45 C 346.64 88.67 338.49 78.18 330.11 67.99 C 325.39 62.25 319.32 57.80 314.88 51.82 Z" />
<path fill="#f29681" opacity="0.98" d=" M 217.59 55.74 C 219.24 55.63 220.90 55.52 222.55 55.41 C 230.25 66.13 236.06 78.16 240.24 90.66 C 247.27 107.86 252.11 125.97 254.31 144.43 C 255.21 152.30 254.00 161.25 248.11 167.05 C 244.55 170.61 240.64 174.64 240.51 180.01 C 239.75 185.60 242.66 191.26 240.60 196.70 C 239.30 188.71 236.50 179.57 241.48 172.27 C 245.52 166.70 251.21 161.80 252.44 154.67 C 253.10 149.08 252.91 143.35 251.59 137.87 C 248.66 124.67 245.87 111.39 241.55 98.55 C 237.90 88.54 233.40 78.86 229.02 69.16 C 226.92 64.44 224.22 59.94 220.42 56.39 C 219.98 58.28 219.70 60.26 220.56 62.07 C 226.80 79.14 234.63 95.80 237.79 113.83 C 238.12 115.76 238.08 117.96 236.70 119.51 C 234.58 119.91 231.47 120.00 230.97 117.30 C 228.32 109.09 225.86 100.80 222.25 92.93 C 218.35 84.13 214.90 75.12 210.52 66.55 C 209.47 64.16 207.52 62.43 205.08 61.52 C 205.16 68.47 208.68 74.63 210.59 81.16 C 214.64 92.21 218.02 103.50 220.40 115.02 C 221.00 117.84 220.88 120.74 220.67 123.60 C 218.78 123.48 216.84 123.60 215.00 123.06 C 213.05 119.68 212.41 115.75 211.02 112.13 C 206.92 101.14 202.43 90.29 197.65 79.58 C 195.36 75.21 193.48 70.42 189.83 66.97 C 187.70 68.30 188.30 70.65 188.97 72.62 C 194.71 87.59 199.69 102.90 203.31 118.53 C 203.80 120.82 204.56 123.12 204.37 125.49 C 203.45 127.39 201.19 128.06 199.53 129.15 C 198.30 127.16 197.07 125.16 196.23 122.98 C 191.07 108.83 185.99 94.56 178.88 81.24 C 177.57 78.62 175.67 76.37 173.61 74.32 C 173.25 76.16 172.49 78.08 173.27 79.93 C 178.59 94.92 183.37 110.15 186.86 125.68 C 187.87 129.95 188.52 134.29 188.71 138.67 C 177.95 140.94 166.92 140.14 156.04 141.19 C 149.57 141.62 143.08 141.09 136.63 141.68 C 128.84 142.59 120.95 142.46 113.22 143.91 C 119.78 144.87 126.41 144.33 133.00 144.44 C 161.13 144.53 189.25 144.27 217.38 144.61 C 217.87 145.00 218.86 145.79 219.35 146.18 C 210.11 148.62 200.50 148.60 191.12 150.23 C 191.23 153.17 191.34 156.11 191.49 159.04 C 189.74 159.70 187.97 160.42 186.08 160.53 C 177.71 161.21 169.30 161.27 160.96 162.25 C 155.05 162.63 149.05 162.45 143.29 164.06 C 148.19 163.95 153.10 163.35 157.98 163.96 C 163.95 164.68 169.97 164.33 175.96 164.37 C 187.64 164.40 199.31 164.35 210.99 164.40 C 213.88 164.39 216.77 164.76 219.58 165.47 C 212.73 168.49 204.87 166.53 198.02 169.72 C 202.05 173.36 208.23 174.96 210.48 180.32 C 213.79 187.84 211.89 196.19 211.33 204.06 C 211.21 206.31 210.55 209.12 208.03 209.77 C 203.56 210.74 198.90 210.02 194.38 210.68 C 183.87 212.05 173.23 210.76 162.72 212.12 C 155.65 212.66 148.54 213.93 141.46 212.90 C 145.93 210.67 151.19 211.61 156.00 210.75 C 165.69 210.84 175.30 209.59 184.97 209.13 C 192.78 208.09 200.76 209.32 208.49 207.55 C 211.60 200.40 210.49 192.42 210.47 184.86 C 209.32 177.69 201.63 175.44 196.57 171.61 C 196.64 169.81 196.71 168.01 196.79 166.22 C 178.37 166.27 159.96 166.22 141.55 166.24 C 140.83 165.48 140.12 164.73 139.41 163.97 C 140.45 162.91 141.50 161.86 142.54 160.80 C 149.39 160.65 156.16 159.54 163.01 159.50 C 171.53 158.06 180.26 159.58 188.73 157.81 C 188.72 155.19 188.72 152.58 188.77 149.96 C 189.78 148.89 190.78 147.81 191.78 146.73 C 189.86 146.60 187.94 146.48 186.02 146.44 C 158.73 146.44 131.44 146.47 104.16 146.44 C 102.16 146.65 100.36 144.95 101.65 142.99 C 105.40 140.84 109.90 141.49 114.02 140.90 C 126.31 140.13 138.67 141.02 150.93 139.57 C 162.77 138.21 174.70 138.88 186.58 138.28 C 186.15 132.10 184.78 126.06 183.63 119.99 C 181.52 108.82 177.19 98.26 173.67 87.50 C 172.46 83.57 170.15 79.69 170.65 75.45 C 171.75 72.85 174.70 73.49 176.95 73.61 C 179.98 80.51 183.93 86.94 187.04 93.79 C 191.65 103.45 194.65 113.74 198.19 123.80 C 198.49 125.50 200.11 126.11 201.66 125.83 C 202.72 124.53 202.16 122.96 201.83 121.51 C 199.49 112.30 198.30 102.77 194.84 93.87 C 192.16 87.45 190.31 80.72 187.52 74.34 C 186.63 71.95 185.29 68.71 187.36 66.58 C 189.19 66.40 191.04 66.57 192.88 66.66 C 195.28 71.91 198.31 76.83 200.73 82.08 C 207.18 94.45 210.74 108.02 215.97 120.89 C 216.62 121.36 217.91 122.30 218.55 122.77 C 218.86 119.49 218.60 116.18 217.74 112.99 C 215.45 103.82 213.73 94.48 210.47 85.58 C 207.81 78.29 205.04 71.04 202.31 63.78 C 203.13 60.78 207.19 58.82 209.37 61.60 C 214.15 69.39 218.18 77.66 221.59 86.14 C 225.51 96.80 229.77 107.33 233.40 118.10 C 234.78 117.76 237.19 117.05 236.18 115.06 C 233.44 103.58 230.17 92.21 226.19 81.10 C 223.60 74.66 220.89 68.28 218.25 61.87 C 217.41 59.93 217.62 57.79 217.59 55.74 Z" />
<path fill="#f29681" opacity="0.98" d=" M 242.41 201.05 C 243.70 209.31 243.13 217.68 243.29 226.00 C 243.53 234.40 241.32 242.64 241.42 251.04 C 241.51 256.47 239.37 261.61 239.38 267.04 C 236.85 285.34 232.24 303.54 223.98 320.15 C 221.81 324.13 217.77 327.57 213.04 327.59 C 209.83 327.69 206.41 327.86 203.46 326.36 C 197.83 323.70 192.13 321.13 186.77 317.95 C 183.18 315.81 180.17 312.49 178.91 308.47 C 178.37 304.99 178.60 301.41 177.60 298.00 C 180.49 296.23 182.23 293.25 182.72 289.93 C 183.02 286.17 187.09 284.92 189.35 282.52 C 154.31 281.98 119.24 282.52 84.20 282.26 C 80.69 281.77 83.01 277.22 85.53 276.87 C 91.00 276.15 96.55 276.77 102.05 276.30 C 112.66 275.05 123.37 276.09 134.01 275.19 C 147.36 273.80 160.84 275.18 174.18 273.65 C 179.46 273.21 184.97 273.91 190.03 272.04 C 191.93 269.37 192.50 266.00 194.44 263.37 C 196.40 260.97 199.68 260.58 202.41 259.53 C 188.31 258.64 174.11 260.11 160.04 258.69 C 160.45 257.38 160.87 256.08 161.29 254.77 C 165.50 254.11 169.72 253.54 173.99 253.51 C 181.81 253.44 189.73 251.58 197.49 253.26 C 194.82 254.36 191.92 254.58 189.07 254.63 C 184.04 254.69 179.05 255.48 174.01 255.41 C 170.48 255.38 166.91 255.41 163.46 256.27 C 169.61 257.00 175.81 256.40 181.98 256.91 C 196.44 258.05 211.00 256.48 225.45 257.81 C 216.64 262.98 205.86 260.02 196.58 263.55 C 193.90 266.16 193.91 270.50 191.28 273.15 C 186.46 276.20 180.45 275.12 175.04 275.35 C 160.64 275.10 146.31 276.68 131.94 277.28 C 115.86 277.08 99.82 278.26 83.85 280.03 C 93.56 280.55 103.28 280.17 112.99 280.28 C 141.65 280.28 170.32 280.28 198.98 280.28 C 204.28 280.30 209.59 280.26 214.87 280.72 C 212.28 284.77 207.03 283.08 203.04 283.75 C 197.78 284.53 192.23 284.43 187.20 286.27 C 184.54 289.49 183.53 293.77 181.24 297.27 C 178.00 301.81 179.91 307.88 182.75 312.12 C 186.39 316.95 192.42 318.84 197.60 321.52 C 203.11 324.33 209.46 327.03 215.70 324.98 C 221.55 322.71 224.29 316.53 226.36 311.05 C 231.76 295.74 235.49 279.88 238.16 263.87 C 239.06 254.23 241.14 244.71 240.72 234.98 C 241.66 226.52 240.84 218.02 241.37 209.55 C 242.56 206.86 242.58 203.93 242.41 201.05 Z" />
<path fill="#f29681" opacity="0.98" d=" M 204.45 228.42 C 205.18 226.24 203.86 220.91 207.59 221.47 C 207.03 224.78 206.97 229.69 203.27 231.05 C 193.53 231.82 183.77 232.47 174.00 232.72 C 167.67 233.64 161.15 232.59 154.92 234.22 C 157.88 234.91 160.91 235.36 163.96 235.32 C 177.96 235.19 191.97 235.32 205.98 235.25 C 212.03 235.24 218.14 234.65 224.13 235.77 L 223.65 237.05 C 217.31 239.29 210.40 239.46 203.72 239.56 C 204.83 238.81 205.95 238.09 207.07 237.35 C 187.83 236.68 168.55 237.91 149.34 236.68 C 149.32 235.52 149.30 234.36 149.28 233.20 C 154.59 230.85 160.47 231.98 166.05 231.18 C 172.66 230.26 179.35 230.68 186.00 230.44 C 192.16 230.23 198.60 230.81 204.45 228.42 Z" />
</g>
<g id="#f24016ff">
<path fill="#f24016" opacity="1.00" d=" M 171.06 4.86 C 182.33 3.60 193.82 2.92 205.05 4.93 C 227.47 5.92 248.94 13.56 269.62 21.76 L 270.04 22.17 C 270.07 22.40 270.13 22.87 270.16 23.10 C 282.73 28.23 294.17 35.84 304.78 44.24 C 307.96 46.69 310.95 49.40 314.39 51.50 L 314.88 51.82 C 319.32 57.80 325.39 62.25 330.11 67.99 C 338.49 78.18 346.64 88.67 352.68 100.45 C 363.42 118.52 369.55 138.91 373.82 159.37 C 375.06 168.20 376.63 177.06 376.43 186.01 C 376.30 194.71 376.89 203.46 375.38 212.08 C 373.59 230.18 368.09 247.68 361.67 264.62 C 359.60 269.97 356.73 274.96 354.02 280.00 C 350.15 287.02 346.29 294.09 341.44 300.50 C 335.25 308.54 329.21 316.77 321.67 323.62 C 314.11 331.87 305.06 338.51 296.17 345.22 C 286.66 351.72 276.52 357.30 266.17 362.34 C 245.74 370.83 224.15 377.33 201.95 378.52 C 189.30 378.31 176.53 379.40 163.99 377.31 C 148.80 375.37 134.08 370.80 119.77 365.46 C 109.68 361.84 100.40 356.38 91.12 351.09 C 82.55 346.25 74.90 340.02 67.23 333.91 C 61.83 329.63 57.42 324.30 52.40 319.61 C 48.63 316.10 45.73 311.77 41.82 308.41 C 39.50 306.11 37.73 303.34 35.81 300.72 C 12.95 268.67 0.55 229.31 0.99 189.94 C 1.15 138.93 23.28 88.48 60.70 53.82 C 76.17 39.45 93.96 27.31 113.47 19.15 C 120.20 17.49 126.62 14.86 133.22 12.78 C 145.55 8.98 158.16 5.76 171.06 4.86 M 217.59 55.74 C 217.62 57.79 217.41 59.93 218.25 61.87 C 220.89 68.28 223.60 74.66 226.19 81.10 C 230.17 92.21 233.44 103.58 236.18 115.06 C 237.19 117.05 234.78 117.76 233.40 118.10 C 229.77 107.33 225.51 96.80 221.59 86.14 C 218.18 77.66 214.15 69.39 209.37 61.60 C 207.19 58.82 203.13 60.78 202.31 63.78 C 205.04 71.04 207.81 78.29 210.47 85.58 C 213.73 94.48 215.45 103.82 217.74 112.99 C 218.60 116.18 218.86 119.49 218.55 122.77 C 217.91 122.30 216.62 121.36 215.97 120.89 C 210.74 108.02 207.18 94.45 200.73 82.08 C 198.31 76.83 195.28 71.91 192.88 66.66 C 191.04 66.57 189.19 66.40 187.36 66.58 C 185.29 68.71 186.63 71.95 187.52 74.34 C 190.31 80.72 192.16 87.45 194.84 93.87 C 198.30 102.77 199.49 112.30 201.83 121.51 C 202.16 122.96 202.72 124.53 201.66 125.83 C 200.11 126.11 198.49 125.50 198.19 123.80 C 194.65 113.74 191.65 103.45 187.04 93.79 C 183.93 86.94 179.98 80.51 176.95 73.61 C 174.70 73.49 171.75 72.85 170.65 75.45 C 170.15 79.69 172.46 83.57 173.67 87.50 C 177.19 98.26 181.52 108.82 183.63 119.99 C 184.78 126.06 186.15 132.10 186.58 138.28 C 174.70 138.88 162.77 138.21 150.93 139.57 C 138.67 141.02 126.31 140.13 114.02 140.90 C 109.90 141.49 105.40 140.84 101.65 142.99 C 100.36 144.95 102.16 146.65 104.16 146.44 C 131.44 146.47 158.73 146.44 186.02 146.44 C 187.94 146.48 189.86 146.60 191.78 146.73 C 190.78 147.81 189.78 148.89 188.77 149.96 C 188.72 152.58 188.72 155.19 188.73 157.81 C 180.26 159.58 171.53 158.06 163.01 159.50 C 156.16 159.54 149.39 160.65 142.54 160.80 C 141.50 161.86 140.45 162.91 139.41 163.97 C 140.12 164.73 140.83 165.48 141.55 166.24 C 159.96 166.22 178.37 166.27 196.79 166.22 C 196.71 168.01 196.64 169.81 196.57 171.61 C 201.63 175.44 209.32 177.69 210.47 184.86 C 210.49 192.42 211.60 200.40 208.49 207.55 C 200.76 209.32 192.78 208.09 184.97 209.13 C 175.30 209.59 165.69 210.84 156.00 210.75 C 151.19 211.61 145.93 210.67 141.46 212.90 C 138.73 212.84 136.03 213.38 133.31 213.57 C 132.49 214.54 131.66 215.51 130.84 216.49 C 156.55 216.81 182.27 216.45 207.98 216.67 C 213.39 217.59 218.89 217.27 224.33 217.89 C 220.29 218.79 216.12 218.41 212.02 218.70 C 210.63 219.18 209.20 219.53 207.76 219.80 C 207.72 220.22 207.63 221.06 207.59 221.47 C 203.86 220.91 205.18 226.24 204.45 228.42 C 198.60 230.81 192.16 230.23 186.00 230.44 C 179.35 230.68 172.66 230.26 166.05 231.18 C 160.47 231.98 154.59 230.85 149.28 233.20 C 149.30 234.36 149.32 235.52 149.34 236.68 C 168.55 237.91 187.83 236.68 207.07 237.35 C 205.95 238.09 204.83 238.81 203.72 239.56 C 203.52 239.56 203.12 239.55 202.92 239.55 C 202.61 240.13 201.98 241.28 201.67 241.86 C 201.56 242.36 201.33 243.36 201.22 243.85 C 200.91 244.93 200.62 246.02 200.35 247.11 C 199.51 249.20 199.01 251.52 197.49 253.26 C 189.73 251.58 181.81 253.44 173.99 253.51 C 169.72 253.54 165.50 254.11 161.29 254.77 C 160.87 256.08 160.45 257.38 160.04 258.69 C 174.11 260.11 188.31 258.64 202.41 259.53 C 199.68 260.58 196.40 260.97 194.44 263.37 C 192.50 266.00 191.93 269.37 190.03 272.04 C 184.97 273.91 179.46 273.21 174.18 273.65 C 160.84 275.18 147.36 273.80 134.01 275.19 C 123.37 276.09 112.66 275.05 102.05 276.30 C 96.55 276.77 91.00 276.15 85.53 276.87 C 83.01 277.22 80.69 281.77 84.20 282.26 C 119.24 282.52 154.31 281.98 189.35 282.52 C 187.09 284.92 183.02 286.17 182.72 289.93 C 182.23 293.25 180.49 296.23 177.60 298.00 C 178.60 301.41 178.37 304.99 178.91 308.47 C 180.17 312.49 183.18 315.81 186.77 317.95 C 192.13 321.13 197.83 323.70 203.46 326.36 C 206.41 327.86 209.83 327.69 213.04 327.59 C 217.77 327.57 221.81 324.13 223.98 320.15 C 232.24 303.54 236.85 285.34 239.38 267.04 C 239.37 261.61 241.51 256.47 241.42 251.04 C 241.32 242.64 243.53 234.40 243.29 226.00 C 243.13 217.68 243.70 209.31 242.41 201.05 C 242.58 203.93 242.56 206.86 241.37 209.55 C 241.64 205.25 241.33 200.94 240.60 196.70 C 242.66 191.26 239.75 185.60 240.51 180.01 C 240.64 174.64 244.55 170.61 248.11 167.05 C 254.00 161.25 255.21 152.30 254.31 144.43 C 252.11 125.97 247.27 107.86 240.24 90.66 C 236.06 78.16 230.25 66.13 222.55 55.41 C 220.90 55.52 219.24 55.63 217.59 55.74 Z" />
</g>
<g id="#ffffffff">
<path fill="#ffffff" opacity="1.00" d=" M 220.56 62.07 C 219.70 60.26 219.98 58.28 220.42 56.39 C 224.22 59.94 226.92 64.44 229.02 69.16 C 233.40 78.86 237.90 88.54 241.55 98.55 C 245.87 111.39 248.66 124.67 251.59 137.87 C 252.91 143.35 253.10 149.08 252.44 154.67 C 251.21 161.80 245.52 166.70 241.48 172.27 C 236.50 179.57 239.30 188.71 240.60 196.70 C 241.33 200.94 241.64 205.25 241.37 209.55 C 240.84 218.02 241.66 226.52 240.72 234.98 C 241.14 244.71 239.06 254.23 238.16 263.87 C 235.49 279.88 231.76 295.74 226.36 311.05 C 224.29 316.53 221.55 322.71 215.70 324.98 C 209.46 327.03 203.11 324.33 197.60 321.52 C 192.42 318.84 186.39 316.95 182.75 312.12 C 179.91 307.88 178.00 301.81 181.24 297.27 C 183.53 293.77 184.54 289.49 187.20 286.27 C 192.23 284.43 197.78 284.53 203.04 283.75 C 207.03 283.08 212.28 284.77 214.87 280.72 C 209.59 280.26 204.28 280.30 198.98 280.28 C 170.32 280.28 141.65 280.28 112.99 280.28 C 103.28 280.17 93.56 280.55 83.85 280.03 C 99.82 278.26 115.86 277.08 131.94 277.28 C 146.31 276.68 160.64 275.10 175.04 275.35 C 180.45 275.12 186.46 276.20 191.28 273.15 C 193.91 270.50 193.90 266.16 196.58 263.55 C 205.86 260.02 216.64 262.98 225.45 257.81 C 211.00 256.48 196.44 258.05 181.98 256.91 C 175.81 256.40 169.61 257.00 163.46 256.27 C 166.91 255.41 170.48 255.38 174.01 255.41 C 179.05 255.48 184.04 254.69 189.07 254.63 C 191.92 254.58 194.82 254.36 197.49 253.26 C 199.01 251.52 199.51 249.20 200.35 247.11 C 200.62 246.02 200.91 244.93 201.22 243.85 C 201.33 243.36 201.56 242.36 201.67 241.86 C 201.98 241.28 202.61 240.13 202.92 239.55 C 203.12 239.55 203.52 239.56 203.72 239.56 C 210.40 239.46 217.31 239.29 223.65 237.05 L 224.13 235.77 C 218.14 234.65 212.03 235.24 205.98 235.25 C 191.97 235.32 177.96 235.19 163.96 235.32 C 160.91 235.36 157.88 234.91 154.92 234.22 C 161.15 232.59 167.67 233.64 174.00 232.72 C 183.77 232.47 193.53 231.82 203.27 231.05 C 206.97 229.69 207.03 224.78 207.59 221.47 C 207.63 221.06 207.72 220.22 207.76 219.80 C 209.20 219.53 210.63 219.18 212.02 218.70 C 216.12 218.41 220.29 218.79 224.33 217.89 C 218.89 217.27 213.39 217.59 207.98 216.67 C 182.27 216.45 156.55 216.81 130.84 216.49 C 131.66 215.51 132.49 214.54 133.31 213.57 C 136.03 213.38 138.73 212.84 141.46 212.90 C 148.54 213.93 155.65 212.66 162.72 212.12 C 173.23 210.76 183.87 212.05 194.38 210.68 C 198.90 210.02 203.56 210.74 208.03 209.77 C 210.55 209.12 211.21 206.31 211.33 204.06 C 211.89 196.19 213.79 187.84 210.48 180.32 C 208.23 174.96 202.05 173.36 198.02 169.72 C 204.87 166.53 212.73 168.49 219.58 165.47 C 216.77 164.76 213.88 164.39 210.99 164.40 C 199.31 164.35 187.64 164.40 175.96 164.37 C 169.97 164.33 163.95 164.68 157.98 163.96 C 153.10 163.35 148.19 163.95 143.29 164.06 C 149.05 162.45 155.05 162.63 160.96 162.25 C 169.30 161.27 177.71 161.21 186.08 160.53 C 187.97 160.42 189.74 159.70 191.49 159.04 C 191.34 156.11 191.23 153.17 191.12 150.23 C 200.50 148.60 210.11 148.62 219.35 146.18 C 218.86 145.79 217.87 145.00 217.38 144.61 C 189.25 144.27 161.13 144.53 133.00 144.44 C 126.41 144.33 119.78 144.87 113.22 143.91 C 120.95 142.46 128.84 142.59 136.63 141.68 C 143.08 141.09 149.57 141.62 156.04 141.19 C 166.92 140.14 177.95 140.94 188.71 138.67 C 188.52 134.29 187.87 129.95 186.86 125.68 C 183.37 110.15 178.59 94.92 173.27 79.93 C 172.49 78.08 173.25 76.16 173.61 74.32 C 175.67 76.37 177.57 78.62 178.88 81.24 C 185.99 94.56 191.07 108.83 196.23 122.98 C 197.07 125.16 198.30 127.16 199.53 129.15 C 201.19 128.06 203.45 127.39 204.37 125.49 C 204.56 123.12 203.80 120.82 203.31 118.53 C 199.69 102.90 194.71 87.59 188.97 72.62 C 188.30 70.65 187.70 68.30 189.83 66.97 C 193.48 70.42 195.36 75.21 197.65 79.58 C 202.43 90.29 206.92 101.14 211.02 112.13 C 212.41 115.75 213.05 119.68 215.00 123.06 C 216.84 123.60 218.78 123.48 220.67 123.60 C 220.88 120.74 221.00 117.84 220.40 115.02 C 218.02 103.50 214.64 92.21 210.59 81.16 C 208.68 74.63 205.16 68.47 205.08 61.52 C 207.52 62.43 209.47 64.16 210.52 66.55 C 214.90 75.12 218.35 84.13 222.25 92.93 C 225.86 100.80 228.32 109.09 230.97 117.30 C 231.47 120.00 234.58 119.91 236.70 119.51 C 238.08 117.96 238.12 115.76 237.79 113.83 C 234.63 95.80 226.80 79.14 220.56 62.07 Z" />
</g>
</svg>
